<svg width="32" height="32" viewBox="0 0 32 32" fill="none" xmlns="http://www.w3.org/2000/svg">
<path d="M29.9643 15.3689L16.631 2.03556C16.4644 1.87 16.2391 1.77708 16.0043 1.77708C15.7695 1.77708 15.5442 1.87 15.3776 2.03556L2.04431 15.3689C1.89868 15.5389 1.82259 15.7577 1.83123 15.9814C1.83987 16.2051 1.93261 16.4173 2.09092 16.5756C2.24922 16.7339 2.46144 16.8267 2.68515 16.8353C2.90886 16.8439 3.12759 16.7679 3.29764 16.6222L15.9999 3.92L28.7021 16.6311C28.8721 16.7767 29.0909 16.8528 29.3146 16.8442C29.5383 16.8356 29.7505 16.7428 29.9088 16.5845C30.0671 16.4262 30.1599 16.214 30.1685 15.9903C30.1771 15.7666 30.101 15.5478 29.9554 15.3778L29.9643 15.3689Z" fill="black"/>
<path d="M24.8891 28.4444H20.4446L18.6668 24.7356H13.2415L11.5557 28.4444H7.11127V16L5.3335 17.7778V28.4444C5.3335 28.9159 5.5208 29.3681 5.8542 29.7015C6.18759 30.0349 6.63978 30.2222 7.11127 30.2222H13.3335L13.2415 24.7356H18.6668V30.2222H24.8891C25.3605 30.2222 25.8127 30.0349 26.1461 29.7015C26.4795 29.3681 26.6668 28.9159 26.6668 28.4444V17.5644L24.8891 15.7867V28.4444Z" fill="black"/>
<path d="M15.9081 16.6295C15.1483 15.9308 14.1537 15.5431 13.1216 15.543C12.5752 15.5436 12.0344 15.6522 11.5302 15.8626C11.0261 16.073 10.5685 16.381 10.1838 16.7689C8.54298 18.4167 8.54368 20.994 10.1852 22.6348L15.2979 27.7475C15.4164 27.956 15.6452 28.0906 15.9081 28.0906C16.016 28.0895 16.1222 28.0632 16.2181 28.0137C16.314 27.9641 16.397 27.8928 16.4603 27.8054L21.6309 22.6348C23.2724 20.9933 23.2724 18.4167 21.6295 16.7661C21.2451 16.3789 20.7878 16.0715 20.2841 15.8616C19.7804 15.6517 19.2402 15.5435 18.6945 15.543C17.6624 15.5432 16.6679 15.9309 15.9081 16.6295V16.6295ZM20.6435 17.7521C21.7334 18.8476 21.7341 20.5589 20.6449 21.6488L15.9081 26.3856L11.1712 21.6488C10.082 20.5589 10.0827 18.8476 11.1698 17.7549C11.6997 17.2278 12.3929 16.9377 13.1216 16.9377C13.8503 16.9377 14.5406 17.2278 15.0664 17.7535L15.415 18.1022C15.4798 18.167 15.5566 18.2184 15.6412 18.2535C15.7258 18.2886 15.8165 18.3067 15.9081 18.3067C15.9996 18.3067 16.0903 18.2886 16.1749 18.2535C16.2595 18.2184 16.3364 18.167 16.4011 18.1022L16.7497 17.7535C17.8041 16.7013 19.5906 16.7041 20.6435 17.7521V17.7521Z" fill="black"/>
</svg>
