<svg width="24" height="24" viewBox="0 0 24 24" fill="none" xmlns="http://www.w3.org/2000/svg">
<path d="M8.14419 6.307C8.57819 6.075 9.04519 6.001 9.50019 6.001C10.0938 6.00288 10.6693 6.20632 11.1322 6.578C11.6492 7.002 12.0002 7.652 12.0002 8.5C12.0002 9.475 11.3112 10.004 10.9232 10.302L10.8382 10.368C10.4142 10.701 10.2502 10.879 10.2502 11.25C10.2502 11.4489 10.1712 11.6397 10.0305 11.7803C9.88986 11.921 9.6991 12 9.50019 12C9.30127 12 9.11051 11.921 8.96986 11.7803C8.8292 11.6397 8.75019 11.4489 8.75019 11.25C8.75019 10.116 9.46119 9.542 9.91219 9.188C10.4252 8.785 10.5002 8.695 10.5002 8.5C10.5002 8.103 10.3512 7.878 10.1802 7.739C9.98623 7.58625 9.74706 7.50219 9.50019 7.5C9.20519 7.5 9.00219 7.549 8.85019 7.63C8.70719 7.706 8.55619 7.84 8.41019 8.11C8.36324 8.19667 8.29968 8.27325 8.22314 8.33536C8.1466 8.39747 8.05857 8.44389 7.96409 8.47198C7.8696 8.50007 7.77051 8.50928 7.67247 8.49907C7.57443 8.48886 7.47936 8.45945 7.39269 8.4125C7.30601 8.36555 7.22944 8.30199 7.16733 8.22545C7.10522 8.14891 7.0588 8.06088 7.03071 7.9664C7.00262 7.87192 6.99341 7.77283 7.00362 7.67478C7.01382 7.57674 7.04324 7.48167 7.09019 7.395C7.35419 6.909 7.70219 6.542 8.14419 6.306V6.307ZM9.50019 15C9.7654 15 10.0198 14.8946 10.2073 14.7071C10.3948 14.5196 10.5002 14.2652 10.5002 14C10.5002 13.7348 10.3948 13.4804 10.2073 13.2929C10.0198 13.1054 9.7654 13 9.50019 13C9.23497 13 8.98062 13.1054 8.79308 13.2929C8.60554 13.4804 8.50019 13.7348 8.50019 14C8.50019 14.2652 8.60554 14.5196 8.79308 14.7071C8.98062 14.8946 9.23497 15 9.50019 15V15ZM9.50019 3C8.23869 2.99979 6.99752 3.31778 5.89153 3.92454C4.78553 4.5313 3.85046 5.40724 3.17283 6.47129C2.4952 7.53533 2.09691 8.75311 2.01482 10.0119C1.93273 11.2708 2.16949 12.53 2.70319 13.673L1.97819 16.515C1.92497 16.7238 1.92662 16.9427 1.98296 17.1507C2.0393 17.3586 2.14843 17.5484 2.29975 17.7018C2.45108 17.8551 2.63946 17.9667 2.84664 18.0258C3.05381 18.0849 3.27274 18.0895 3.48219 18.039C4.23219 17.859 5.38519 17.582 6.41219 17.337C7.43187 17.7968 8.54148 18.0227 9.65977 17.9982C10.7781 17.9737 11.8767 17.6993 12.8752 17.1952C13.8738 16.6911 14.7469 15.9701 15.4307 15.0848C16.1145 14.1996 16.5916 13.1727 16.8271 12.0792C17.0627 10.9857 17.0506 9.85338 16.7919 8.76516C16.5331 7.67694 16.0343 6.66037 15.3318 5.7899C14.6293 4.91943 13.741 4.21712 12.732 3.73439C11.723 3.25165 10.6187 3.00073 9.50019 3V3ZM3.50019 10.5C3.50058 9.1953 3.92624 7.92628 4.71267 6.88523C5.49909 5.84419 6.60343 5.08785 7.85833 4.73083C9.11323 4.37381 10.4503 4.43556 11.667 4.90672C12.8836 5.37789 13.9135 6.23279 14.6007 7.34189C15.2878 8.45099 15.5947 9.75384 15.4748 11.053C15.355 12.3522 14.8149 13.5769 13.9364 14.5416C13.058 15.5062 11.889 16.1583 10.6067 16.3989C9.32439 16.6395 7.99859 16.4556 6.83019 15.875L6.58719 15.754L6.32219 15.817L3.53419 16.484C3.73419 15.704 3.99619 14.672 4.22419 13.776L4.29419 13.5L4.16419 13.247C3.72622 12.3977 3.49851 11.4556 3.50019 10.5V10.5ZM14.5002 21C12.6084 21.0026 10.7859 20.2879 9.40019 19H9.50019C10.2182 19 10.9152 18.911 11.5812 18.743C12.4452 19.225 13.4412 19.5 14.5012 19.5C15.4612 19.5 16.3672 19.275 17.1702 18.875L17.4132 18.754L17.6782 18.817C18.5992 19.037 19.6432 19.262 20.4182 19.427C20.2118 18.5415 19.9978 17.6578 19.7762 16.776L19.7062 16.5L19.8362 16.247C20.2741 15.3977 20.5019 14.4556 20.5002 13.5C20.5007 12.4969 20.2495 11.5096 19.7696 10.6287C19.2896 9.74786 18.5963 9.00149 17.7532 8.458C17.5768 7.74373 17.3079 7.05556 16.9532 6.411C17.9459 6.75475 18.8554 7.30315 19.6227 8.02069C20.3901 8.73823 20.9982 9.60892 21.4077 10.5764C21.8172 11.5439 22.019 12.5865 21.9999 13.6369C21.9809 14.6873 21.7415 15.722 21.2972 16.674C21.5502 17.682 21.8072 18.774 21.9692 19.477C22.0167 19.6808 22.0121 19.8932 21.9558 20.0947C21.8994 20.2963 21.7932 20.4803 21.6468 20.6299C21.5005 20.7794 21.3188 20.8896 21.1185 20.9503C20.9183 21.011 20.7059 21.0202 20.5012 20.977C19.7742 20.825 18.6312 20.581 17.5882 20.337C16.6178 20.7754 15.565 21.0014 14.5002 21Z" fill="black"/>
</svg>
