<svg width="49" height="49" viewBox="0 0 49 49" fill="none" xmlns="http://www.w3.org/2000/svg">
<path fillRule="evenodd" clipRule="evenodd" d="M15.8203 3.02697C18.1655 2.91901 18.9132 2.89502 24.887 2.89502C30.8609 2.89502 31.6086 2.92101 33.9518 3.02697C36.2949 3.13293 37.8943 3.5068 39.2938 4.0486C40.7593 4.6024 42.0888 5.46809 43.1884 6.58768C44.308 7.68528 45.1717 9.0128 45.7235 10.4803C46.2673 11.8798 46.6392 13.4792 46.7471 15.8183C46.8551 18.1675 46.8791 18.9152 46.8791 24.887C46.8791 30.8609 46.8531 31.6086 46.7471 33.9538C46.6412 36.2929 46.2673 37.8923 45.7235 39.2918C45.1717 40.7595 44.3066 42.0892 43.1884 43.1884C42.0888 44.308 40.7593 45.1717 39.2938 45.7235C37.8943 46.2673 36.2949 46.6392 33.9558 46.7471C31.6086 46.8551 30.8609 46.8791 24.887 46.8791C18.9132 46.8791 18.1655 46.8531 15.8203 46.7471C13.4812 46.6412 11.8818 46.2673 10.4823 45.7235C9.01464 45.1716 7.68492 44.3065 6.58568 43.1884C5.46685 42.0902 4.60103 40.7611 4.0486 39.2938C3.5068 37.8943 3.13493 36.2949 3.02697 33.9558C2.91901 31.6066 2.89502 30.8589 2.89502 24.887C2.89502 18.9132 2.92101 18.1655 3.02697 15.8223C3.13293 13.4792 3.5068 11.8798 4.0486 10.4803C4.60185 9.01297 5.46832 7.68391 6.58768 6.58568C7.68536 5.46709 9.01375 4.60129 10.4803 4.0486C11.8798 3.5068 13.4792 3.13493 15.8183 3.02697H15.8203ZM33.7738 6.98554C31.4547 6.87958 30.7589 6.85758 24.887 6.85758C19.0152 6.85758 18.3194 6.87958 16.0003 6.98554C13.855 7.0835 12.6915 7.44137 11.9157 7.74326C10.8901 8.14312 10.1564 8.61695 9.38667 9.38667C8.65702 10.0965 8.0955 10.9607 7.74326 11.9157C7.44137 12.6915 7.0835 13.855 6.98554 16.0003C6.87958 18.3194 6.85758 19.0152 6.85758 24.887C6.85758 30.7589 6.87958 31.4547 6.98554 33.7738C7.0835 35.919 7.44137 37.0826 7.74326 37.8583C8.09513 38.812 8.65693 39.6777 9.38667 40.3874C10.0964 41.1172 10.9621 41.679 11.9157 42.0308C12.6915 42.3327 13.855 42.6906 16.0003 42.7886C18.3194 42.8945 19.0132 42.9165 24.887 42.9165C30.7609 42.9165 31.4547 42.8945 33.7738 42.7886C35.919 42.6906 37.0826 42.3327 37.8583 42.0308C38.884 41.631 39.6177 41.1572 40.3874 40.3874C41.1172 39.6777 41.679 38.812 42.0308 37.8583C42.3327 37.0826 42.6906 35.919 42.7886 33.7738C42.8945 31.4547 42.9165 30.7589 42.9165 24.887C42.9165 19.0152 42.8945 18.3194 42.7886 16.0003C42.6906 13.855 42.3327 12.6915 42.0308 11.9157C41.631 10.8901 41.1572 10.1564 40.3874 9.38667C39.6775 8.65707 38.8134 8.09556 37.8583 7.74326C37.0826 7.44137 35.919 7.0835 33.7738 6.98554ZM22.0781 31.6666C23.6468 32.3196 25.3936 32.4078 27.0201 31.9159C28.6466 31.4241 30.052 30.3829 30.9961 28.9701C31.9401 27.5572 32.3644 25.8604 32.1965 24.1695C32.0285 22.4786 31.2787 20.8984 30.0752 19.6989C29.3079 18.9322 28.3802 18.345 27.3588 17.9798C26.3374 17.6146 25.2478 17.4805 24.1683 17.5869C23.0888 17.6934 22.0464 18.0379 21.116 18.5956C20.1857 19.1533 19.3905 19.9103 18.7879 20.8122C18.1852 21.7141 17.79 22.7384 17.6307 23.8114C17.4714 24.8843 17.552 25.9792 17.8667 27.0173C18.1813 28.0554 18.7222 29.0108 19.4505 29.8147C20.1787 30.6186 21.0761 31.2511 22.0781 31.6666ZM16.8939 16.8939C17.9436 15.8443 19.1898 15.0116 20.5612 14.4436C21.9327 13.8755 23.4026 13.5831 24.887 13.5831C26.3715 13.5831 27.8414 13.8755 29.2129 14.4436C30.5843 15.0116 31.8305 15.8443 32.8802 16.8939C33.9298 17.9436 34.7625 19.1898 35.3305 20.5612C35.8986 21.9327 36.191 23.4026 36.191 24.887C36.191 26.3715 35.8986 27.8414 35.3305 29.2129C34.7625 30.5843 33.9298 31.8305 32.8802 32.8802C30.7602 35.0001 27.885 36.191 24.887 36.191C21.8891 36.191 19.0138 35.0001 16.8939 32.8802C14.774 30.7602 13.5831 27.885 13.5831 24.887C13.5831 21.8891 14.774 19.0138 16.8939 16.8939ZM38.698 15.2665C38.9582 15.0212 39.1664 14.7261 39.3104 14.3988C39.4545 14.0715 39.5314 13.7186 39.5366 13.3611C39.5418 13.0035 39.4752 12.6486 39.3408 12.3172C39.2063 11.9859 39.0068 11.6849 38.7539 11.432C38.5011 11.1792 38.2001 10.9796 37.8687 10.8452C37.5374 10.7107 37.1824 10.6442 36.8249 10.6494C36.4673 10.6546 36.1144 10.7315 35.7872 10.8755C35.4599 11.0196 35.1648 11.2278 34.9194 11.4879C34.4422 11.9938 34.1809 12.6657 34.1911 13.3611C34.2012 14.0565 34.482 14.7205 34.9737 15.2122C35.4655 15.704 36.1295 15.9847 36.8249 15.9949C37.5202 16.005 38.1922 15.7437 38.698 15.2665Z" fill="white"/>
</svg>
