<svg width="24" height="24" viewBox="0 0 24 24" fill="none" xmlns="http://www.w3.org/2000/svg">
<path d="M12 12.15C13.2333 12.15 14.416 11.6601 15.288 10.788C16.1601 9.916 16.65 8.73326 16.65 7.5C16.65 6.26674 16.1601 5.084 15.288 4.21195C14.416 3.33991 13.2333 2.85 12 2.85C10.7667 2.85 9.584 3.33991 8.71195 4.21195C7.83991 5.084 7.35 6.26674 7.35 7.5C7.35 8.73326 7.83991 9.916 8.71195 10.788C9.584 11.6601 10.7667 12.15 12 12.15ZM14.85 7.5C14.85 8.25587 14.5497 8.98078 14.0153 9.51525C13.4808 10.0497 12.7559 10.35 12 10.35C11.2441 10.35 10.5192 10.0497 9.98475 9.51525C9.45027 8.98078 9.15 8.25587 9.15 7.5C9.15 6.74413 9.45027 6.01922 9.98475 5.48475C10.5192 4.95027 11.2441 4.65 12 4.65C12.7559 4.65 13.4808 4.95027 14.0153 5.48475C14.5497 6.01922 14.85 6.74413 14.85 7.5ZM4.5 21V21.15H19.5V21C19.5 21.15 19.5001 21.15 19.5002 21.15H19.5004L19.5009 21.15L19.5023 21.15L19.5067 21.1499L19.5218 21.1496C19.5346 21.1491 19.5526 21.1483 19.5751 21.1467C19.6201 21.1435 19.6835 21.1371 19.759 21.1245C19.9095 21.0994 20.1124 21.049 20.3171 20.9467C20.5224 20.844 20.7322 20.6877 20.8904 20.4504C21.0493 20.2122 21.15 19.9012 21.15 19.5C21.15 18.7115 20.7601 17.1729 19.4186 15.8314C18.0727 14.4855 15.7816 13.35 12 13.35C8.21837 13.35 5.92735 14.4855 4.58143 15.8314C3.23992 17.1729 2.85 18.7115 2.85 19.5C2.85 19.9012 2.95074 20.2122 3.10957 20.4504C3.26777 20.6877 3.47762 20.844 3.68292 20.9467C3.88763 21.049 4.09052 21.0994 4.24097 21.1245C4.31655 21.1371 4.37986 21.1435 4.42486 21.1467C4.44739 21.1483 4.4654 21.1491 4.47816 21.1496L4.49328 21.1499L4.49772 21.15L4.49914 21.15L4.49964 21.15H4.49984C4.49992 21.15 4.5 21.15 4.5 21ZM18.1459 17.1041C19.0148 17.973 19.2856 18.9065 19.3392 19.344H4.66121C4.71562 18.9058 4.98558 17.9725 5.85407 17.1041C6.79871 16.1594 8.59673 15.15 12 15.15C15.4018 15.15 17.2013 16.1594 18.1459 17.1041Z" fill="black" stroke="black" stroke-width="0.3"/>
</svg>
