<svg width="24" height="24" viewBox="0 0 24 24" fill="none" xmlns="http://www.w3.org/2000/svg">
<path d="M11.25 2.25002C10.0163 2.25002 9 3.26627 9 4.50002L9.012 4.37702L8.27325 8.80952L6.85575 12.6885C6.82875 12.7238 6.7965 12.75 6.75 12.75H6V12H2.25V21.75H6V19.5H8.9445C10.1775 19.5 11.2882 18.9023 12 17.9738C12.7125 18.9023 13.8225 19.5 15.0555 19.5H18V21.75H21.75V12H18V12.75H17.25C17.2027 12.75 17.1713 12.7238 17.145 12.6885L15.7267 8.80952L14.988 4.37702L15 4.50002C15 3.26627 13.9837 2.25002 12.75 2.25002C12.495 2.25002 12.234 2.29952 12 2.42027C11.767 2.30496 11.51 2.24661 11.25 2.25002V2.25002ZM11.2238 3.76202C11.2388 3.87002 11.25 4.11602 11.25 4.50002V16.0785C11.1518 16.6182 10.8671 17.1062 10.4457 17.4574C10.0244 17.8086 9.49303 18.0006 8.9445 18H6V14.25H6.75C7.04011 14.2496 7.32494 14.1723 7.5755 14.0261C7.82607 13.8799 8.03343 13.6699 8.1765 13.4175L8.2065 13.362L9.72675 9.19052L10.5 4.56152V4.50002C10.5 4.08752 10.8165 3.77627 11.2238 3.76202ZM12.7762 3.76202C13.1835 3.77702 13.5 4.08677 13.5 4.50002V4.56152L14.2733 9.19052L15.7943 13.362L15.8235 13.4183C15.9667 13.6705 16.1741 13.8803 16.4247 14.0263C16.6752 14.1724 16.96 14.2496 17.25 14.25H18V18H15.0555C14.5069 18.0006 13.9755 17.8084 13.5541 17.4571C13.1327 17.1058 12.8481 16.6176 12.75 16.0778V4.50002C12.75 4.11602 12.762 3.87002 12.7762 3.76202ZM3.75 13.5H4.5V20.25H3.75V13.5ZM19.5 13.5H20.25V20.25H19.5V13.5Z" fill="black"/>
</svg>
