<svg width="49" height="49" viewBox="0 0 49 49" fill="none" xmlns="http://www.w3.org/2000/svg">
<g clip-path="url(#clip0_46_89)">
<path d="M25.0398 6.89014H25.3067C27.7718 6.89913 40.2622 6.9891 43.63 7.89477C44.6481 8.17118 45.5759 8.70994 46.3205 9.45723C47.0652 10.2045 47.6007 11.1342 47.8735 12.1532C48.1764 13.2928 48.3893 14.8013 48.5332 16.3577L48.5632 16.6696L48.6292 17.4493L48.6532 17.7612C48.8481 20.5022 48.8721 23.0693 48.8751 23.6301V23.855C48.8721 24.4368 48.8451 27.1778 48.6292 30.0327L48.6052 30.3476L48.5782 30.6595C48.4283 32.3749 48.2064 34.0783 47.8735 35.3318C47.6015 36.3513 47.0663 37.2814 46.3215 38.0288C45.5767 38.7762 44.6485 39.3147 43.63 39.5903C40.1513 40.5259 26.9291 40.5919 25.0967 40.5949H24.6709C23.7442 40.5949 19.9116 40.5769 15.8931 40.439L15.3833 40.421L15.1224 40.409L14.6095 40.388L14.0967 40.367C10.7679 40.2201 7.59808 39.9831 6.13761 39.5873C5.11945 39.312 4.19151 38.7739 3.44676 38.0271C2.702 37.2802 2.16659 36.3508 1.89415 35.3318C1.56127 34.0813 1.33935 32.3749 1.1894 30.6595L1.16541 30.3446L1.14142 30.0327C0.993415 28.0007 0.911402 25.9643 0.895508 23.927L0.895508 23.5581C0.901506 22.9133 0.925497 20.6851 1.08744 18.226L1.10843 17.9171L1.11743 17.7612L1.14142 17.4493L1.20739 16.6696L1.23738 16.3577C1.38133 14.8013 1.59425 13.2898 1.89714 12.1532C2.16913 11.1337 2.70434 10.2037 3.44912 9.45625C4.1939 8.70884 5.12208 8.17035 6.14061 7.89477C7.60108 7.50491 10.7709 7.265 14.0997 7.11505L14.6095 7.09406L15.1253 7.07607L15.3833 7.06707L15.8961 7.04608C18.7502 6.95424 21.6054 6.90325 24.461 6.89314H25.0398V6.89014ZM20.0886 16.5166V30.9654L32.555 23.744L20.0886 16.5166Z" fill="white"/>
</g>
<defs>
<clipPath id="clip0_46_89">
<rect width="47.9826" height="47.9826" fill="white" transform="translate(0.895508 0.895508)"/>
</clipPath>
</defs>
</svg>
